<svg xmlns="http://www.w3.org/2000/svg" width="689.194" height="138.854" viewBox="0 0 689.194 138.854">
  <g id="logo-horizontal-noir" transform="translate(-28.869 -28.24)">
    <g id="Groupe_1" data-name="Groupe 1" transform="translate(28.869 29.544)">
      <path id="Tracé_1" data-name="Tracé 1" d="M28.955,78.274c-.043-33.235,29.251-48.747,49.853-49.1,12.477-.213,20.687,3.445,21.283,4.693.525,1.078-2.552,6.168-19.354,22.247C64.63,71.525,42.326,85.789,31.564,86.1c-3.431.1-2.609-3.857-2.609-7.827" transform="translate(-28.869 -29.158)" fill="#fac500"/>
      <path id="Tracé_2" data-name="Tracé 2" d="M34.026,102.337c.482-.383,2.325-.369,6.579-.369,5.757,0,13.952-2.269,24.9-9,8.706-5.36,20.233-16.05,43.628-40.58C125.168,35.569,138.5,29.16,152.944,29.16c13.7,0,24.7,6.636,32.4,20.715.837,1.531.539,1.872-.851,2.155-4.211.851-7.883,1.276-14.732,4.466-6.04,2.807-13.626,7.245-28.982,22.729C128.854,91.235,119.95,101.855,110,109.682s-27.862,16.972-45.344,16.972c-12.165,0-22.615-9.2-30.8-22.729-.61-1.021.043-1.489.17-1.588" transform="translate(-26.892 -29.16)" fill="red"/>
      <path id="Tracé_3" data-name="Tracé 3" d="M184,55.06c1.333,2.425,2.084,5.09,2.084,10.18,0,9.84-11.542,34.7-29.9,54.759-15.044,16.447-40.325,35.4-54.078,35.4-6.863,0-22.771-9.117-32.583-15.6-6.069-4.013-8.21-4.849-13.6-9.358-.922-.766-.5-2.07.907-1.957,2.878.255,8.224,1.546,13.328,1.546a58.709,58.709,0,0,0,31.321-8.677c15.809-9.939,28.726-21.892,55.936-51.3,8.635-9.344,17.468-15,26.585-15" transform="translate(-17.767 -18.337)" fill="#0051ff"/>
    </g>
    <g id="Groupe_2" data-name="Groupe 2" transform="translate(239.469 28.24)">
      <path id="Tracé_4" data-name="Tracé 4" d="M228.572,79.235c-.6,3.063-1.035,6.04-1.475,8.9-.1.709-.213,1.418-.326,2.127-.468-2.311-1.049-4.58-1.659-6.933-.34-1.361-.695-2.737-1.021-4.126l-6.664-29.024H206.58l-6.891,29.01-.241.993c-.794,3.275-1.574,6.423-2.184,9.656-.525-3.474-1.12-6.933-1.829-10.62l-6.65-32.541H177.4l12.35,56.957h13.7l6.2-26.8c.681-2.963,1.347-6.678,2.013-11.272.666,4.608,1.347,8.394,2.013,11.272l6.437,26.8h13.7L245.912,46.68H235.207Z" transform="translate(-177.4 -20.534)"/>
      <path id="Tracé_5" data-name="Tracé 5" d="M257.992,45.72c-18.872,0-29.053,15.313-29.053,29.733,0,17.922,12.321,29.96,30.655,29.96a38.823,38.823,0,0,0,21.85-6.735l.723-.482-4.353-7.841-.837.525c-5.5,3.474-10.492,5.034-16.206,5.034-11.343,0-18.83-6.324-20.233-16.759h43l.128-.794a40,40,0,0,0,.468-5.856C284.11,55.986,274.1,45.72,257.992,45.72Zm.241,9.372c8.933,0,14.264,5.232,15.285,14.845H240.808C242.906,59.785,250.818,55.092,258.234,55.092Z" transform="translate(-155.862 -20.935)"/>
      <path id="Tracé_6" data-name="Tracé 6" d="M303.927,52.757c-6,0-12.633,2.765-17.709,7.33l.369-8.663V28.88H275.13v82.209h9.358l.822-5.487c5.062,4.254,11.343,6.848,16.689,6.848,12.789,0,25.735-10.563,25.735-30.754C327.734,63.576,318.843,52.757,303.927,52.757ZM317.766,81.81c0,12.378-6.31,20.687-15.682,20.687A26.171,26.171,0,0,1,286.6,96.74V70.24c5.246-5.2,12.137-7.529,16.717-7.529C312.9,62.711,317.766,69.134,317.766,81.81Z" transform="translate(-136.56 -27.973)"/>
      <path id="Tracé_7" data-name="Tracé 7" d="M368.722,45.72c-11.258,0-21.325,5.643-25.139,8.068l-.766.482,4.736,8.068.822-.5c6.877-4.254,13.172-6.409,18.716-6.409,8.323,0,12.874,4,13.555,11.882C352.36,69.668,340.79,75.921,340.79,88.8c0,9.783,8.11,16.6,19.737,16.6,8.692,0,16.66-4.835,21.155-8.224l.737,6.863h9.741V69.385C392.174,54.341,383.624,45.72,368.722,45.72Zm13.938,29.8v12.69c-6.324,5.1-12.08,7.6-17.61,7.6-2.581,0-10.96-.553-10.96-7.7C354.09,83.025,357.507,77.58,382.66,75.524Z" transform="translate(-109.121 -20.935)"/>
      <path id="Tracé_8" data-name="Tracé 8" d="M433.194,98.067a35.276,35.276,0,0,1-12.761,2.425c-9.316,0-12.945-3.913-12.945-13.938V61.486h26.883v-9.6H407.487V34.22H397.7l-1.276,17.7-16.008.567v9h15.6V86.441c0,15.98,7.3,23.764,22.318,23.764a49.838,49.838,0,0,0,17.568-3.332l.822-.3-2.595-8.862Z" transform="translate(-92.561 -25.741)"/>
      <path id="Tracé_9" data-name="Tracé 9" d="M457.587,45.8c-3.587-.3-12.945-1.092-22.785,12.86l-.808-11.471H424.21v56.957h11.471V71.365c4.58-8.025,11.882-17.071,20.885-15.1a2.2,2.2,0,0,0,.978.071l.581-.156,1.6-9.245.284-1.475-1.432.411A8.279,8.279,0,0,1,457.587,45.8Z" transform="translate(-74.261 -21.044)"/>
      <path id="Tracé_10" data-name="Tracé 10" d="M452.57,56.279h10.039v47.357h11.471V46.68H452.57Z" transform="translate(-62.41 -20.534)"/>
      <path id="Tracé_11" data-name="Tracé 11" d="M465.527,28.24a8.11,8.11,0,0,0-8.507,8.266c0,4.863,3.5,8.266,8.507,8.266s8.507-3.4,8.507-8.266A8.11,8.11,0,0,0,465.527,28.24Z" transform="translate(-60.55 -28.24)"/>
      <path id="Tracé_12" data-name="Tracé 12" d="M503.369,45.72c-13.569,0-28.159,9.372-28.159,29.946,0,14.774,9.67,29.733,28.159,29.733s28.173-14.959,28.173-29.733C531.543,55.092,516.938,45.72,503.369,45.72Zm0,49.853c-9.854,0-16.476-8-16.476-19.893,0-12.038,6.622-20.12,16.476-20.12s16.476,8.082,16.476,20.12C519.845,87.576,513.224,95.573,503.369,95.573Z" transform="translate(-52.949 -20.935)"/>
      <rect id="Rectangle_4" data-name="Rectangle 4" width="21.509" height="9.741" transform="translate(201.269 48.619)"/>
    </g>
    <g id="Groupe_3" data-name="Groupe 3" transform="translate(336.665 150.093)">
      <path id="Tracé_13" data-name="Tracé 13" d="M245.95,114.39H250.6c3.346,0,5.629,1.12,5.629,4a3.551,3.551,0,0,1-2.878,3.573v.1c2.4.369,3.8,1.673,3.8,3.928,0,3.219-2.5,4.792-6.168,4.792h-5.019V114.39Zm4.31,6.905c2.793,0,3.928-.893,3.928-2.722,0-1.772-1.3-2.425-3.828-2.425h-2.325V121.3Zm.425,7.742c2.793,0,4.424-.922,4.424-3.148,0-2.028-1.545-2.85-4.424-2.85h-2.651v6Z" transform="translate(-245.95 -114.092)"/>
      <path id="Tracé_14" data-name="Tracé 14" d="M262.78,114.39h10.152v1.772h-8.039v5.119h6.792v1.772h-6.792v5.941h8.295v1.772H262.794V114.39Z" transform="translate(-238.917 -114.092)"/>
      <path id="Tracé_15" data-name="Tracé 15" d="M283.511,124.939l-5.5-10.549h2.226l2.453,4.849c.624,1.276,1.205,2.524,1.872,3.828h.1c.652-1.3,1.3-2.552,1.928-3.828l2.368-4.849h2.155l-5.5,10.549v5.842h-2.1Z" transform="translate(-232.553 -114.092)"/>
      <path id="Tracé_16" data-name="Tracé 16" d="M294.75,122.6c0-5.3,2.595-8.422,6.3-8.422s6.3,3.119,6.3,8.422c0,5.374-2.595,8.578-6.3,8.578S294.75,127.976,294.75,122.6Zm10.421,0c0-4.126-1.645-6.565-4.126-6.565s-4.126,2.453-4.126,6.565c0,4.2,1.645,6.721,4.126,6.721S305.171,126.8,305.171,122.6Z" transform="translate(-225.557 -114.18)"/>
      <path id="Tracé_17" data-name="Tracé 17" d="M311.92,114.39h2.3l5.246,10.294,1.574,3.4h.057c-.071-1.631-.269-3.474-.269-5.2V114.39h2v16.391h-2.3l-5.246-10.294-1.574-3.4h-.057c.071,1.673.269,3.431.269,5.119v8.564h-2Z" transform="translate(-218.382 -114.092)"/>
      <path id="Tracé_18" data-name="Tracé 18" d="M328.57,114.39h4.055c4.92,0,7.6,2.921,7.6,8.124s-2.68,8.266-7.5,8.266H328.57V114.39Zm3.9,14.675c3.729,0,5.572-2.4,5.572-6.551,0-4.126-1.843-6.395-5.572-6.395h-1.8v12.945Z" transform="translate(-211.424 -114.092)"/>
      <path id="Tracé_19" data-name="Tracé 19" d="M355.32,122.673c0-5.275,3.077-8.493,7.345-8.493a6.148,6.148,0,0,1,4.495,2l-1.205,1.319a4.429,4.429,0,0,0-3.3-1.475c-3.119,0-5.175,2.524-5.175,6.593,0,4.126,2.056,6.692,5.175,6.692a4.717,4.717,0,0,0,3.672-1.8l1.205,1.276a6.315,6.315,0,0,1-5.076,2.368C358.425,131.18,355.32,128.033,355.32,122.673Z" transform="translate(-200.246 -114.18)"/>
      <path id="Tracé_20" data-name="Tracé 20" d="M371.59,122.6c0-5.3,2.595-8.422,6.3-8.422s6.3,3.119,6.3,8.422c0,5.374-2.595,8.578-6.3,8.578S371.59,127.976,371.59,122.6Zm10.422,0c0-4.126-1.645-6.565-4.126-6.565s-4.126,2.453-4.126,6.565c0,4.2,1.645,6.721,4.126,6.721S382.011,126.8,382.011,122.6Z" transform="translate(-193.447 -114.18)"/>
      <path id="Tracé_21" data-name="Tracé 21" d="M388.84,114.39H392.9c4.92,0,7.6,2.921,7.6,8.124s-2.68,8.266-7.5,8.266H388.84V114.39Zm3.9,14.675c3.729,0,5.572-2.4,5.572-6.551,0-4.126-1.843-6.395-5.572-6.395h-1.8v12.945Z" transform="translate(-186.238 -114.092)"/>
      <path id="Tracé_22" data-name="Tracé 22" d="M405.55,129.008h4.069V116.162H405.55V114.39H415.8v1.772h-4.069v12.846H415.8v1.772H405.55Z" transform="translate(-179.255 -114.092)"/>
      <path id="Tracé_23" data-name="Tracé 23" d="M421.88,114.39h2.3l5.246,10.294,1.574,3.4h.057c-.071-1.631-.269-3.474-.269-5.2V114.39h2v16.391h-2.3l-5.246-10.294-1.574-3.4h-.057c.071,1.673.269,3.431.269,5.119v8.564h-2Z" transform="translate(-172.431 -114.092)"/>
      <path id="Tracé_24" data-name="Tracé 24" d="M437.94,122.673c0-5.3,3.02-8.493,7.274-8.493a6.02,6.02,0,0,1,4.523,2l-1.205,1.319a4.269,4.269,0,0,0-3.318-1.475c-3.077,0-5.076,2.524-5.076,6.593,0,4.126,1.829,6.692,5.019,6.692a4.1,4.1,0,0,0,2.822-.95v-4.268h-3.247v-1.73h5.2v6.891a6.89,6.89,0,0,1-4.892,1.9C440.918,131.18,437.94,128.033,437.94,122.673Z" transform="translate(-165.72 -114.18)"/>
    </g>
  </g>
</svg>
